<svg xmlns="http://www.w3.org/2000/svg" height="20" width="20"><path d="M15.021 16.042q-2.042-.209-3.979-1.188-1.938-.979-3.459-2.521-1.521-1.541-2.521-3.468T3.875 4.896q-.042-.438.25-.761t.75-.323h1.5q.437 0 .719.23.281.229.385.646l.375 1.291q.063.292-.021.563-.083.27-.291.458L5.729 8.708q1.104 1.938 2.459 3.282 1.354 1.343 3.229 2.322l1.875-1.874q.229-.23.427-.271.198-.042.448.021l1.104.25q.396.104.625.406.229.302.229.718v1.48q0 .562-.396.791-.396.229-.708.209Zm-9.604-8L7.104 6.5q.084-.083.104-.187.021-.105 0-.209l-.375-1.375q-.041-.125-.114-.187-.073-.063-.219-.063H4.792q-.104 0-.167.063-.063.062-.063.166.021.792.261 1.636.239.844.594 1.698Zm6.687 6.562q.771.354 1.646.521.875.167 1.5.229.083 0 .146-.062.062-.063.062-.167v-1.708q0-.125-.062-.209-.063-.083-.188-.125l-1.146-.25q-.083-.021-.156 0t-.156.105ZM5.417 8.042Zm6.687 6.562Z"/></svg>